<svg xmlns="http://www.w3.org/2000/svg" width="39" height="32" fill="none"><path fill="url(#a)" d="M38.78 15.513a15.513 15.513 0 0 0-31.025 0h4.848c1.607 0 2.86-1.347 3.448-2.841a7.756 7.756 0 0 1 14.973 2.84z"/><path fill="#FBCF8E" d="M29.844 21.45c.78-1.883 1.181-3.9 1.181-5.937h7.756c0 8.567-6.945 15.512-15.513 15.512a15.5 15.5 0 0 1-3.885-.49 15.5 15.5 0 0 0 7.099-4.053 15.5 15.5 0 0 0 3.362-5.033Z"/><path fill="url(#b)" d="M0 15.513a15.513 15.513 0 1 0 31.025 0h-4.847c-1.607 0-2.86 1.346-3.448 2.84a7.755 7.755 0 0 1-14.974-2.84z"/><path fill="#73E5E2" d="M.001 15.513C.001 6.945 6.947 0 15.514 0c1.341 0 2.643.17 3.885.49A15.51 15.51 0 0 0 7.755 15.513z"/><defs><linearGradient id="a" x1="38.781" x2="7.755" y1="7.756" y2="7.756" gradientUnits="userSpaceOnUse"><stop stop-color="#73E5E2"/><stop offset="1" stop-color="#394F87"/></linearGradient><linearGradient id="b" x1="0" x2="31.025" y1="23.269" y2="23.269" gradientUnits="userSpaceOnUse"><stop stop-color="#FBDC8E"/><stop offset="1" stop-color="#FB958E"/></linearGradient></defs></svg>