<svg xmlns="http://www.w3.org/2000/svg" width="60" height="23" fill="none"><g fill="#fff" clip-path="url(#a)"><path d="M14.242 0a8.85 8.85 0 0 0-6.247 2.579l-5.407 5.39A8.8 8.8 0 0 0 0 14.194C0 19.058 3.955 23 8.835 23a8.85 8.85 0 0 0 6.247-2.58l3.74-3.727L29.72 5.832a4.227 4.227 0 0 1 6.996 1.67l3.44-3.429A8.84 8.84 0 0 0 32.704 0a8.85 8.85 0 0 0-6.248 2.579L11.82 17.169A4.23 4.23 0 0 1 8.835 18.4a4.21 4.21 0 0 1-4.22-4.205 4.2 4.2 0 0 1 1.236-2.974l5.408-5.39a4.227 4.227 0 0 1 6.996 1.67l3.44-3.428A8.84 8.84 0 0 0 14.241 0"/><path d="M30.28 17.168a4.227 4.227 0 0 1-6.996-1.668l-3.44 3.427A8.84 8.84 0 0 0 27.297 23a8.85 8.85 0 0 0 6.248-2.58L48.182 5.833A4.23 4.23 0 0 1 51.165 4.6c2.33 0 4.22 1.883 4.22 4.205a4.2 4.2 0 0 1-1.236 2.974l-5.407 5.39a4.227 4.227 0 0 1-6.997-1.67l-3.439 3.428A8.84 8.84 0 0 0 45.758 23a8.85 8.85 0 0 0 6.247-2.58l5.407-5.388A8.8 8.8 0 0 0 60 8.805C60 3.942 56.044 0 51.165 0a8.85 8.85 0 0 0-6.247 2.579z"/></g><defs><clipPath id="a"><path fill="#fff" d="M0 0h60v23H0z"/></clipPath></defs></svg>