<svg xmlns="http://www.w3.org/2000/svg" width="103" height="23" fill="none"><g fill="#fff" clip-path="url(#a)"><path fill-rule="evenodd" d="M8.778 16.1c-.776 0-1.52-.303-2.069-.842a2.85 2.85 0 0 1-.857-2.033V0H0v13.225c0 4.763 3.93 8.625 8.778 8.625h6.438V16.1zM26.335 5.75c-.692 0-1.376.134-2.015.394s-1.22.641-1.71 1.122a5.2 5.2 0 0 0-1.14 1.679 5.1 5.1 0 0 0 0 3.96 5.2 5.2 0 0 0 1.14 1.68c.49.48 1.07.861 1.71 1.121a5.4 5.4 0 0 0 2.015.394 5.32 5.32 0 0 0 3.725-1.516 5.13 5.13 0 0 0 1.542-3.659 5.13 5.13 0 0 0-1.542-3.66 5.32 5.32 0 0 0-3.725-1.515m-11.12 5.175C15.216 4.892 20.196 0 26.336 0s11.12 4.892 11.12 10.925-4.98 10.925-11.121 10.925-11.12-4.892-11.12-10.925M89.54 5.75a5.32 5.32 0 0 0-3.725 1.516 5.13 5.13 0 0 0-1.542 3.659 5.13 5.13 0 0 0 1.542 3.66A5.32 5.32 0 0 0 89.54 16.1a5.32 5.32 0 0 0 3.724-1.516 5.13 5.13 0 0 0 1.543-3.659 5.13 5.13 0 0 0-1.543-3.66A5.32 5.32 0 0 0 89.54 5.75m-11.12 5.175C78.42 4.892 83.4 0 89.54 0s11.119 4.892 11.119 10.925-4.978 10.925-11.12 10.925c-6.14 0-11.119-4.892-11.119-10.925M49.744 0c-6.14 0-11.119 4.892-11.119 10.925s4.978 10.925 11.12 10.925H66.13c1.152 0 2.263-.173 3.309-.492L72.568 23l3.376-6.212a10.8 10.8 0 0 0 1.306-5.138v-.725C77.25 4.892 72.272 0 66.13 0zm21.654 10.925a5.13 5.13 0 0 0-1.543-3.66 5.32 5.32 0 0 0-3.724-1.515H49.744c-.691 0-1.376.134-2.015.394s-1.22.641-1.709 1.122a5.2 5.2 0 0 0-1.142 1.679 5.1 5.1 0 0 0 0 3.96 5.2 5.2 0 0 0 1.142 1.68 5.3 5.3 0 0 0 1.709 1.121 5.4 5.4 0 0 0 2.015.394h16.387c1.39 0 2.723-.54 3.71-1.502a5.13 5.13 0 0 0 1.557-3.633z" clip-rule="evenodd"/><path d="M103 1.438c0 .38-.154.746-.428 1.016a1.48 1.48 0 0 1-2.069 0 1.423 1.423 0 0 1 0-2.033 1.48 1.48 0 0 1 2.069 0c.274.27.428.635.428 1.017"/></g><defs><clipPath id="a"><path fill="#fff" d="M0 0h103v23H0z"/></clipPath></defs></svg>