<svg xmlns="http://www.w3.org/2000/svg" width="85" height="20" fill="none"><g fill="#fff" clip-path="url(#a)"><path fill-rule="evenodd" d="M5.037 1.25V20H0V1.25zm2.519 0h10.703c3.478 0 6.296 2.798 6.296 6.25s-2.818 6.25-6.296 6.25h-5.666V20H7.556zm5.037 7.5h5.666c.696 0 1.26-.56 1.26-1.25s-.564-1.25-1.26-1.25h-5.666zm30.852-7.5v9.688c0 2.243 1.832 4.062 4.092 4.062s4.093-1.819 4.093-4.062V1.25h5.037v9.688c0 5.005-4.088 9.062-9.13 9.062s-9.13-4.057-9.13-9.062V1.25z" clip-rule="evenodd"/><path fill-rule="evenodd" d="M26.445 10c0-4.832 3.946-8.75 8.814-8.75h1.26v5h-1.26c-2.086 0-3.777 1.679-3.777 3.75v.625c0 5.178-4.229 9.375-9.445 9.375h-.63v-5h.63c2.434 0 4.408-1.959 4.408-4.375z" clip-rule="evenodd"/><path d="M85 1.875a1.88 1.88 0 0 1-1.889 1.875 1.88 1.88 0 0 1-1.888-1.875A1.88 1.88 0 0 1 83.11 0C84.154 0 85 .84 85 1.875M62.075 20l2.404-9.991 1.787 6.01c1.065 3.586 6.18 3.586 7.246 0l1.787-6.01 2.404 9.99h5.178l-3.78-15.71C78.204.555 72.9.416 71.805 4.1l-1.915 6.443L67.975 4.1c-1.095-3.684-6.4-3.545-7.298.19L56.896 20z"/></g><defs><clipPath id="a"><path fill="#fff" d="M0 0h85v20H0z"/></clipPath></defs></svg>