<svg xmlns="http://www.w3.org/2000/svg" width="150" height="52" fill="none"><rect width="52" height="52" fill="url(#a)" rx="16"/><g fill="#fff" clip-path="url(#b)"><path d="m24.156 31.48-2.446-5.922-.962-2.247 3.07-3.678 1.374-.59 2.396 1.686s.927 1.533 1.408 2.582l.55 1.35 1.037 2.543-.58 1.36-2.737 3.77-3.12-.85"/><path d="m21.485 22.428-.736.883.96 2.247 2.447 5.921 3.12.85 2.736-3.77q.286-.674.58-1.36l-.34-.834a6.4 6.4 0 0 1-5.232.003 6.5 6.5 0 0 1-2.173-1.587 6.65 6.65 0 0 1-1.362-2.346z"/><path d="M29.005 23.311c-.68-1.269-2.664-2.543-4.697-1.368-1.286.749-2.027 2.272-2.428 3.215l-.17.398c-1.245 2.918-2.428 5.697-3.133 7.347-2.115 4.95-10.633 3.815-10.633 3.815l7.974-18.747c1.319-3.1 6.939-3.752 9.605-1.387a6.7 6.7 0 0 1 1.77 2.543z"/><path d="M22.997 28.686c.68 1.27 2.666 2.543 4.698 1.369 1.285-.747 2.026-2.27 2.428-3.213l.17-.398c1.244-2.92 2.428-5.699 3.133-7.347 2.115-4.952 10.632-3.815 10.632-3.815L36.085 34.02c-1.32 3.098-6.94 3.752-9.605 1.387a6.7 6.7 0 0 1-1.771-2.525z"/><path d="m21.71 25.558.17-.397c.401-.943 1.133-2.467 2.428-3.216 2.04-1.184 4.026.1 4.697 1.369l-1.712-4.187a6.7 6.7 0 0 0-1.77-2.543c-2.494-2.22-7.608-1.78-9.315.846a22.1 22.1 0 0 0 2.056 16.07 5 5 0 0 0 .313-.604c.705-1.641 1.888-4.42 3.133-7.338m22.053-9.589.295-.694s-8.517-1.137-10.632 3.815c-.706 1.648-1.889 4.427-3.133 7.347l-.17.398c-.069.16-.15.34-.239.527a21.1 21.1 0 0 0 8.165-4.145 21.6 21.6 0 0 0 5.714-7.248"/></g><path fill="#fff" d="M138.623 35.591q-2.082 0-3.605-.914t-2.362-2.564q-.825-1.65-.825-3.834 0-2.196.825-3.847.838-1.664 2.362-2.577 1.523-.915 3.605-.914c2.082.001 2.59.305 3.606.914q1.522.914 2.361 2.577.837 1.65.838 3.847 0 2.183-.838 3.834-.839 1.65-2.361 2.564-1.524.914-3.606.914m0-2.691q1.155 0 1.904-.61.75-.622 1.118-1.675.38-1.054.38-2.336 0-1.308-.38-2.361-.369-1.054-1.118-1.664-.749-.622-1.904-.622-1.13 0-1.892.622-.76.61-1.142 1.663-.368 1.054-.368 2.362 0 1.282.368 2.336.381 1.052 1.142 1.676.762.609 1.892.609m-14.942 2.412V21.119h3.237v2.386h.152q.382-1.244 1.333-1.904a3.67 3.67 0 0 1 2.171-.673q.267 0 .61.026.355.025.584.063v3.072a3.3 3.3 0 0 0-.673-.127 8 8 0 0 0-.876-.05q-.927 0-1.651.393a3 3 0 0 0-1.142 1.08q-.406.685-.406 1.599v8.328zm-9.953.292q-1.36 0-2.438-.482a3.96 3.96 0 0 1-1.701-1.448q-.622-.951-.622-2.348 0-1.194.444-1.98a3.43 3.43 0 0 1 1.206-1.258 6.3 6.3 0 0 1 1.739-.71q.966-.255 1.994-.356 1.257-.14 2.031-.241.775-.102 1.117-.33.356-.23.356-.711v-.064q0-1.027-.61-1.6-.61-.57-1.777-.57-1.232 0-1.955.533-.711.533-.965 1.256l-3.11-.444q.367-1.295 1.218-2.158a5.3 5.3 0 0 1 2.07-1.308q1.231-.444 2.716-.444 1.016 0 2.032.241a5.6 5.6 0 0 1 1.866.787 4.1 4.1 0 0 1 1.358 1.498q.508.94.508 2.349v9.496h-3.212v-1.955h-.101a4.1 4.1 0 0 1-.864 1.104q-.546.508-1.371.826-.812.317-1.929.317m.85-2.463q1.016 0 1.752-.393a3 3 0 0 0 1.143-1.067 2.8 2.8 0 0 0 .406-1.46v-1.663q-.165.127-.533.241-.369.102-.838.19-.47.09-.927.153-.444.063-.774.102a5.6 5.6 0 0 0-1.346.342 2.3 2.3 0 0 0-.927.635q-.343.406-.343 1.054 0 .927.673 1.396.673.47 1.714.47M98.76 21.119l2.856 5.256 2.907-5.256h3.542l-4.265 7.109 4.342 7.084h-3.517l-3.009-5.103-2.958 5.103h-3.542l4.304-7.084-4.202-7.11h3.542ZM88.451 35.591q-2.133 0-3.681-.888a6.07 6.07 0 0 1-2.387-2.54q-.825-1.637-.825-3.859 0-2.196.825-3.846.825-1.665 2.323-2.59 1.498-.927 3.53-.927 1.306 0 2.475.419a5.7 5.7 0 0 1 2.082 1.295q.914.876 1.434 2.234.52 1.346.521 3.212v1.041H83.119v-2.247h9.966l-1.562.66q0-1.206-.368-2.095-.369-.9-1.091-1.409-.725-.507-1.803-.507-1.08 0-1.841.507a3.2 3.2 0 0 0-1.155 1.371q-.394.85-.394 1.905v1.561q0 1.295.444 2.222.457.915 1.27 1.396.826.483 1.917.483a3.9 3.9 0 0 0 1.295-.203 2.7 2.7 0 0 0 1.016-.61 2.76 2.76 0 0 0 .66-1.028l3.123.368a5 5 0 0 1-1.13 2.158q-.813.915-2.095 1.422-1.27.495-2.92.495m-8.887-19.195v18.916h-3.072l-8.9-12.886h-.164v12.886H64V16.396h3.072l8.9 12.886h.165V16.396z"/><defs><linearGradient id="a" x1="46.222" x2="2.167" y1="0" y2="48.389" gradientUnits="userSpaceOnUse"><stop stop-color="#B94FF5"/><stop offset="1" stop-color="#694AF9"/></linearGradient><clipPath id="b"><path fill="#fff" d="M7.944 15.167h36.111v21.667H7.945z"/></clipPath></defs></svg>