<svg xmlns="http://www.w3.org/2000/svg" width="24" height="24" fill="none"><circle cx="12" cy="12" r="12" fill="#FFFDFD"/><circle cx="12" cy="12" r="12" fill="url(#a)"/><g fill="#fff" clip-path="url(#b)"><path d="m12.637 6.222.149.133c.217.219.334.507.467.781l.08.164.226.462.028.059.185.383c.048.097.09.189.117.293a.4.4 0 0 0 .134.222c.097.03.195.042.295.055l.596.084 1.187.17c.325.047.604.118.848.347l.047.043c.2.209.275.482.285.765-.018.48-.305.767-.63 1.084l-.102.102a8 8 0 0 1-.443.415q-.2.177-.393.364a8 8 0 0 0-.254.24l-.047.041c-.068.069-.101.117-.11.215q.012.13.034.258l.016.1a17 17 0 0 0 .08.458l.093.52c.236 1.299.236 1.299-.011 1.695-.174.241-.403.422-.698.481a3 3 0 0 1-.246.014l-.06.002c-.275-.004-.512-.132-.746-.265a29 29 0 0 0-.953-.503l-.06-.03a7 7 0 0 1-.401-.212l-.056-.031-.103-.06a.37.37 0 0 0-.22-.06c-.09.027-.168.063-.252.107l-.048.025-.155.082-.108.056-.455.24q-.274.142-.544.29l-.088.05-.17.093c-.238.131-.444.218-.718.214h-.065c-.325-.01-.562-.135-.785-.369a1.02 1.02 0 0 1-.255-.716v-.065c.004-.237.043-.466.086-.699l.087-.49.136-.768.022-.121.019-.106c.029-.162.029-.162-.02-.313l-.046-.045-.053-.053-.057-.056-.06-.058L8.13 12a11 11 0 0 0-.508-.476q-.168-.152-.327-.311l-.084-.082c-.28-.27-.481-.544-.489-.945.012-.338.112-.593.348-.836.3-.274.684-.301 1.07-.356l.538-.077.625-.09.218-.03.133-.02.061-.009c.134-.016.134-.016.263-.05a1.6 1.6 0 0 0 .13-.241l.153-.315.181-.374.047-.096.114-.239.036-.074.034-.074.108-.226c.382-.811.382-.811.826-.987.344-.107.73-.083 1.031.129Zm5.437 6.712.13.045.2.066.127.043.06.02c.157.054.3.14.386.287a.64.64 0 0 1-.003.45c-.075.127-.151.205-.296.247-.24.044-.456-.045-.68-.119l-.213-.068-.137-.044-.064-.02c-.177-.06-.335-.132-.424-.306a.7.7 0 0 1 .011-.452c.236-.33.56-.26.903-.149m-11.42-.04c.114.105.197.192.212.35.004.166-.002.267-.116.397l-.045.054a.75.75 0 0 1-.28.137l-.065.021-.133.044-.202.068c-.526.175-.526.175-.746.11A.6.6 0 0 1 5 13.778c-.018-.152-.02-.286.046-.424a.9.9 0 0 1 .417-.26l.064-.022.132-.044.2-.069c.546-.185.546-.185.795-.065m5.51 3.891a.64.64 0 0 1 .274.246c.05.145.063.272.062.423v.202l.002.206c.002.503.002.503-.14.677l-.05.037c-.024.02-.024.02-.049.038-.129.088-.277.072-.427.058a.63.63 0 0 1-.274-.246 1.2 1.2 0 0 1-.062-.423V17.8l-.002-.207c-.002-.502-.002-.502.14-.677l.05-.036.049-.039c.129-.087.277-.071.427-.057ZM7.926 5.328a.8.8 0 0 1 .289.263l.034.046.114.156.047.063.145.198.046.064.044.061.04.054c.105.16.108.301.088.49a.55.55 0 0 1-.18.256.67.67 0 0 1-.478.051c-.16-.072-.254-.224-.353-.362L7.72 6.61l-.25-.354-.114-.159c-.099-.142-.11-.273-.087-.442a.8.8 0 0 1 .205-.287.8.8 0 0 1 .45-.041Zm8.504 0a.56.56 0 0 1 .3.328.57.57 0 0 1-.085.447q-.165.232-.338.456l-.113.153-.063.088-.056.077a.45.45 0 0 1-.325.17.5.5 0 0 1-.409-.145c-.115-.135-.132-.244-.128-.42.021-.138.085-.23.169-.34l.128-.176c.493-.68.493-.68.92-.638"/></g><defs><linearGradient id="a" x1="21.333" x2="1" y1="0" y2="22.333" gradientUnits="userSpaceOnUse"><stop stop-color="#B94FF5"/><stop offset="1" stop-color="#694AF9"/></linearGradient><clipPath id="b"><path fill="#fff" d="M5 5h14v14H5z"/></clipPath></defs></svg>