<svg xmlns="http://www.w3.org/2000/svg" width="24" height="24" fill="none"><g clip-path="url(#a)"><path fill="#694AF9" d="M11.8.557c2.95-.052 5.677 1.038 7.888 2.959l.13.113c.21.185.404.373.584.587q.136.156.279.308c1.715 1.912 2.698 4.542 2.757 7.101l.006.186c.062 2.926-1.038 5.758-3.004 7.91a8 8 0 0 0-.24.28 3.5 3.5 0 0 1-.411.396 6 6 0 0 0-.198.179c-1.943 1.828-4.63 2.761-7.263 2.862l-.154.006c-1.325.024-2.621-.209-3.877-.616l-.103-.033a10.3 10.3 0 0 1-2.653-1.336 11 11 0 0 1-1.154-.909l-.208-.182a5.4 5.4 0 0 1-.58-.583q-.136-.158-.28-.308C1.612 17.572.637 14.972.564 12.422l-.003-.101c-.063-2.38.598-4.9 2.018-6.837l.099-.136c.263-.36.547-.7.839-1.035l.113-.131a5.5 5.5 0 0 1 .587-.584q.157-.136.308-.279C6.516 1.533 9.154.643 11.799.557Zm3.313 7.903-.117.116-.377.377-.264.264-1.736 1.736-.69.69-.108.108q-.285.286-.55.592a5 5 0 0 1-.264.28l-.099.099-.204.202-.25.248c-.184-.076-.317-.201-.46-.336l-.08-.074a22 22 0 0 1-.61-.6l-.09-.092-.365-.373-.352-.361c-.311-.313-.632-.484-1.073-.522a1.5 1.5 0 0 0-1.018.439c-.308.36-.34.758-.312 1.216.09.582.804 1.094 1.202 1.495l.092.091.964.971.56.563c.62.643.62.643 1.454.879.79-.013 1.292-.696 1.81-1.216l.273-.272.176-.176.08-.08q.199-.2.383-.414.265-.298.55-.577l.338-.338.366-.364.907-.904.768-.766.359-.357.32-.32q.277-.276.531-.573c.09-.103.19-.195.29-.288.295-.296.398-.542.416-.96-.015-.432-.152-.712-.463-1.008-.324-.264-.6-.337-1.019-.324-.571.066-.954.543-1.338.929"/></g><defs><clipPath id="a"><path fill="#fff" d="M0 0h24v24H0z"/></clipPath></defs></svg>