<svg xmlns="http://www.w3.org/2000/svg" width="16" height="16" fill="none"><path fill="#fff" d="M8.004 4.406a3.585 3.585 0 0 0-3.591 3.59 3.585 3.585 0 0 0 3.59 3.591 3.585 3.585 0 0 0 3.591-3.59 3.585 3.585 0 0 0-3.59-3.591m0 5.925a2.34 2.34 0 0 1-2.335-2.335 2.337 2.337 0 0 1 2.335-2.334 2.337 2.337 0 0 1 2.334 2.334 2.34 2.34 0 0 1-2.334 2.335m4.575-6.072a.836.836 0 0 1-.838.837.838.838 0 1 1 .838-.837m2.378.85c-.054-1.122-.31-2.116-1.132-2.934-.818-.82-1.812-1.075-2.934-1.132-1.156-.065-4.622-.065-5.778 0-1.119.053-2.113.31-2.934 1.128-.822.82-1.075 1.813-1.132 2.935-.065 1.156-.065 4.622 0 5.778.053 1.122.31 2.116 1.132 2.934.821.82 1.812 1.075 2.934 1.132 1.156.065 4.622.065 5.778 0 1.122-.053 2.116-.31 2.934-1.132.82-.818 1.075-1.812 1.132-2.934.065-1.156.065-4.619 0-5.775m-1.494 7.016a2.36 2.36 0 0 1-1.331 1.33c-.922.367-3.11.282-4.128.282-1.02 0-3.21.081-4.129-.281a2.36 2.36 0 0 1-1.33-1.331c-.366-.922-.282-3.11-.282-4.129s-.081-3.209.281-4.128a2.36 2.36 0 0 1 1.331-1.33c.922-.367 3.11-.282 4.129-.282s3.209-.081 4.128.281a2.36 2.36 0 0 1 1.33 1.331c.367.922.282 3.11.282 4.128 0 1.02.085 3.21-.281 4.129"/></svg>