<svg xmlns="http://www.w3.org/2000/svg" width="24" height="24" fill="none"><circle cx="12" cy="12" r="12" fill="#FFFDFD"/><circle cx="12" cy="12" r="12" fill="url(#a)"/><g fill="#fff" clip-path="url(#b)"><path d="m17.313 5.868.103-.001c.44-.002.44-.002.627.09.35.62.011 1.837-.161 2.458a12 12 0 0 1-.632 1.699l-.038.082c-.453.983-1.022 1.95-1.76 2.748l-.151.172q-.151.171-.314.332l-.058.058a5 5 0 0 1-.468.408l-.248.21c-.08.064-.08.064-.132.087a.3.3 0 0 0-.14.113 2 2 0 0 0-.02.377q.002.157-.001.316v.063c-.012.651-.27 1.24-.69 1.733l-.049.06c-.545.657-1.415.994-2.22 1.194l-.07.018a1.3 1.3 0 0 1-.477.04.5.5 0 0 1-.164-.191c.006-.306.043-.611.077-.915l.014-.132.03-.274.039-.35.03-.271.014-.13.02-.18.01-.102c.012-.08.012-.08.04-.135l-.087.002c-.406.007-.647-.03-.95-.319l-.108-.108-.06-.059-.308-.307-.12-.12-.055-.055c-.217-.219-.285-.41-.284-.72l.001-.062v-.064l.002-.156-.062.01q-.375.058-.753.098l-.13.014-.27.03-.344.039-.673.074c-.232.02-.232.02-.345-.035-.095-.084-.107-.134-.13-.258a1.3 1.3 0 0 1 .036-.239l.014-.07a5.1 5.1 0 0 1 .552-1.465c.386-.706 1.002-1.255 1.78-1.486l.188-.048.072-.018c.164-.035.328-.045.495-.054l.072-.004a2 2 0 0 1 .325.006c.107.01.189.014.294-.012.11-.098.185-.208.265-.33.056-.083.12-.158.186-.234l.038-.044c.289-.338.59-.667.938-.945q.116-.093.229-.19c.523-.436 1.105-.789 1.698-1.12l.163-.092c.559-.31 1.16-.551 1.76-.764l.064-.023a8.3 8.3 0 0 1 1.659-.414l.053-.008c.194-.025.389-.026.584-.027m-4.19 3.16c-.273.262-.436.555-.45.935-.007.413.12.715.402 1.019.276.26.585.349.955.346.376-.012.678-.18.934-.45.258-.314.32-.64.296-1.034-.03-.304-.193-.568-.416-.77l-.04-.04c-.469-.438-1.199-.393-1.68-.005Z"/><path d="M8.09 14.188c.027.027.027.027.035.1a.6.6 0 0 1-.098.272c-.15.283-.242.59-.164.909.091.278.239.47.5.605.33.138.655.086.985-.027a2 2 0 0 0 .218-.131.28.28 0 0 1 .22-.033c.042.043.033.085.035.145-.005.354-.198.728-.446.976-.772.643-2.102.705-3.063.684-.029-.814.074-1.695.356-2.461l.032-.09a1.44 1.44 0 0 1 .783-.838 1.23 1.23 0 0 1 .607-.111"/></g><defs><linearGradient id="a" x1="21.333" x2="1" y1="0" y2="22.333" gradientUnits="userSpaceOnUse"><stop stop-color="#B94FF5"/><stop offset="1" stop-color="#694AF9"/></linearGradient><clipPath id="b"><path fill="#fff" d="M5 5h14v14H5z"/></clipPath></defs></svg>