<svg xmlns="http://www.w3.org/2000/svg" width="106" height="24" fill="none"><g fill="#fff" clip-path="url(#a)"><path fill-rule="evenodd" d="M9.034 16.8a3.02 3.02 0 0 1-2.13-.879 3 3 0 0 1-.881-2.121V0H0v13.8c0 4.97 4.045 9 9.034 9h6.625v-6zM27.102 6a5.44 5.44 0 0 0-3.833 1.582 5.4 5.4 0 0 0-1.587 3.818 5.38 5.38 0 0 0 1.587 3.818 5.42 5.42 0 0 0 3.833 1.582 5.43 5.43 0 0 0 3.833-1.582 5.39 5.39 0 0 0 0-7.636A5.43 5.43 0 0 0 27.102 6M15.66 11.4C15.66 5.104 20.783 0 27.102 0c6.32 0 11.443 5.104 11.443 11.4s-5.123 11.4-11.443 11.4-11.443-5.104-11.443-11.4ZM92.148 6a5.43 5.43 0 0 0-3.833 1.582 5.39 5.39 0 0 0 0 7.636 5.43 5.43 0 0 0 7.666 0 5.39 5.39 0 0 0 0-7.636A5.43 5.43 0 0 0 92.148 6m-11.443 5.4c0-6.296 5.123-11.4 11.443-11.4s11.443 5.104 11.443 11.4-5.124 11.4-11.443 11.4c-6.32 0-11.443-5.104-11.443-11.4M51.193 0C44.873 0 39.75 5.104 39.75 11.4s5.123 11.4 11.443 11.4h16.864c1.186 0 2.33-.18 3.405-.514L74.682 24l3.474-6.482a11.4 11.4 0 0 0 1.344-5.361V11.4C79.5 5.104 74.376 0 68.057 0zm22.284 11.4a5.4 5.4 0 0 0-1.587-3.818A5.43 5.43 0 0 0 68.057 6H51.193a5.44 5.44 0 0 0-3.833 1.582 5.4 5.4 0 0 0-1.587 3.818 5.38 5.38 0 0 0 1.587 3.818 5.42 5.42 0 0 0 3.833 1.582h16.864c1.43 0 2.802-.563 3.818-1.567a5.4 5.4 0 0 0 1.602-3.791z" clip-rule="evenodd"/><path d="M106 1.5a1.5 1.5 0 0 1-1.506 1.5c-.399 0-.782-.158-1.065-.44A1.499 1.499 0 0 1 104.494 0c.399 0 .782.158 1.065.44.282.28.441.662.441 1.06"/></g><defs><clipPath id="a"><path fill="#fff" d="M0 0h106v24H0z"/></clipPath></defs></svg>