<svg xmlns="http://www.w3.org/2000/svg" width="101" height="24" fill="none"><g fill="#fff" clip-path="url(#a)"><path fill-rule="evenodd" d="M5.985 1.5V24H0V1.5zm2.993 0h12.718c4.132 0 7.482 3.358 7.482 7.5s-3.35 7.5-7.482 7.5h-6.733V24H8.978zm5.985 9h6.733c.827 0 1.497-.672 1.497-1.5s-.67-1.5-1.497-1.5h-6.733zm36.659-9v11.625A4.87 4.87 0 0 0 56.485 18a4.87 4.87 0 0 0 4.863-4.875V1.5h5.986v11.625C67.334 19.131 62.477 24 56.485 24c-5.991 0-10.848-4.869-10.848-10.875V1.5z" clip-rule="evenodd"/><path fill-rule="evenodd" d="M31.422 12c0-5.799 4.69-10.5 10.474-10.5h1.496v6h-1.496a4.494 4.494 0 0 0-4.489 4.5v.75c0 6.213-5.024 11.25-11.222 11.25h-.748v-6h.748a5.244 5.244 0 0 0 5.237-5.25z" clip-rule="evenodd"/><path d="M101 2.25a2.247 2.247 0 0 1-2.245 2.25 2.247 2.247 0 0 1-2.244-2.25A2.247 2.247 0 0 1 98.755 0 2.247 2.247 0 0 1 101 2.25M73.76 24l2.856-11.99 2.123 7.214c1.266 4.301 7.344 4.301 8.61 0l2.124-7.213L92.329 24h6.153l-4.49-18.852c-1.069-4.484-7.37-4.65-8.672-.229l-2.276 7.73-2.275-7.73C79.468.5 73.165.664 72.097 5.148L67.607 24z"/></g><defs><clipPath id="a"><path fill="#fff" d="M0 0h101v24H0z"/></clipPath></defs></svg>