<svg xmlns="http://www.w3.org/2000/svg" width="61" height="61" fill="none"><foreignObject width="84.884" height="84.884" x="-12" y="-12"><div xmlns="http://www.w3.org/1999/xhtml" style="backdrop-filter:blur(6px);clip-path:url(#a);height:100%;width:100%"/></foreignObject><circle cx="30.442" cy="30.442" r="29.942" fill="#050119" fill-opacity=".29" stroke="url(#b)" data-figma-bg-blur-radius="12"/><path fill="#694AF9" d="M30.884 15.384c-8.284 0-15 6.716-15 15 8.284 0 15-6.716 15-15m0 30c8.284 0 15-6.716 15-15-8.284 0-15 6.716-15 15m0-30c8.284 0 15 6.716 15 15-8.284 0-15-6.716-15-15m0 30c-8.284 0-15-6.716-15-15 8.284 0 15 6.716 15 15"/><defs><linearGradient id="b" x1="30.442" x2="30.442" y1="27.426" y2="60.884" gradientUnits="userSpaceOnUse"><stop stop-color="#8C73FF"/><stop offset="1" stop-opacity="0"/></linearGradient><clipPath id="a" transform="translate(12 12)"><circle cx="30.442" cy="30.442" r="29.942"/></clipPath></defs></svg>